<svg width="1024" height="1024" viewBox="0 0 1024 1024" fill="none" xmlns="http://www.w3.org/2000/svg">
<rect width="1024" height="1024" rx="500" fill="#1C1D1D"/>
<path d="M310 627.105C310 649.615 319.847 669.822 335.25 683.891V729.421C335.25 743.489 346.612 755 360.5 755H385.75C399.637 755 411 743.489 411 729.421V703.842H613V729.421C613 743.489 624.362 755 638.25 755H663.5C677.388 755 688.75 743.489 688.75 729.421V683.891C704.152 669.822 714 649.615 714 627.105V371.316C714 281.789 623.605 269 512 269C400.395 269 310 281.789 310 371.316V627.105ZM398.375 652.684C377.418 652.684 360.5 635.546 360.5 614.316C360.5 593.085 377.418 575.947 398.375 575.947C419.332 575.947 436.25 593.085 436.25 614.316C436.25 635.546 419.332 652.684 398.375 652.684ZM625.625 652.684C604.668 652.684 587.75 635.546 587.75 614.316C587.75 593.085 604.668 575.947 625.625 575.947C646.582 575.947 663.5 593.085 663.5 614.316C663.5 635.546 646.582 652.684 625.625 652.684ZM663.5 499.211H360.5V371.316H663.5V499.211Z" fill="#FCD42C"/>
</svg>
