<svg width="25" height="32" viewBox="0 0 25 32" fill="none" xmlns="http://www.w3.org/2000/svg">
<path d="M11.2924 31.0347C2.40051 18.144 0.75 16.821 0.75 12.0835C0.75 5.59413 6.01063 0.333496 12.5 0.333496C18.9894 0.333496 24.25 5.59413 24.25 12.0835C24.25 16.821 22.5995 18.144 13.7076 31.0347C13.124 31.8776 11.8759 31.8775 11.2924 31.0347ZM12.5 16.9793C15.2039 16.9793 17.3958 14.7874 17.3958 12.0835C17.3958 9.37959 15.2039 7.18766 12.5 7.18766C9.79609 7.18766 7.60417 9.37959 7.60417 12.0835C7.60417 14.7874 9.79609 16.9793 12.5 16.9793Z" fill="#F5F5F5"/>
</svg>
