<svg width="16" height="18" viewBox="0 0 16 18" fill="none" xmlns="http://www.w3.org/2000/svg">
<path d="M12.1393 0.505583L1.28672 6.7712C-0.428906 7.76178 -0.428906 10.2382 1.28672 11.2288L12.1393 17.4944C13.8549 18.485 16 17.2474 16 15.2662V2.73382C16 0.752652 13.8549 -0.485 12.1393 0.505583ZM12.4083 10.4126C12.5988 10.5834 12.7177 10.7728 12.7523 10.9587C12.7881 11.163 12.7165 11.3443 12.5318 11.5163C12.3667 11.6583 12.2016 11.7183 12.0042 11.7045C11.8021 11.6929 11.5828 11.5659 11.3322 11.3166L9.99877 9.99232L8.57755 11.4066C8.39629 11.5983 8.22196 11.7045 8.03261 11.738C7.99682 11.7437 7.96219 11.7472 7.92871 11.7472C7.76015 11.7472 7.61006 11.6699 7.47267 11.5128C7.33528 11.3524 7.2764 11.1861 7.28795 10.9887C7.29949 10.7809 7.43457 10.5557 7.68972 10.3214L9.00819 9.01098L7.64931 7.66134C7.4542 7.47661 7.33182 7.27803 7.29949 7.08985C7.27294 6.86587 7.33413 6.69384 7.48999 6.53798C7.63199 6.39598 7.77862 6.32786 7.94025 6.32786C8.1319 6.32786 8.31778 6.40406 8.52675 6.56915L8.54176 6.58185L9.99877 8.0227L11.4304 6.60725C11.6301 6.40752 11.8287 6.28976 12.0203 6.25743C12.227 6.23088 12.4025 6.29669 12.5618 6.45601C12.6992 6.58185 12.7719 6.7331 12.7719 6.89819C12.7604 7.11755 12.683 7.30228 12.5272 7.48816L12.5156 7.50086L10.9894 9.00174L12.4083 10.4126Z" fill="#FCD42C"/>
</svg>
