<svg width="24" height="22" viewBox="0 0 24 22" fill="none" xmlns="http://www.w3.org/2000/svg">
<path d="M12 0.777832C9.22123 0.777832 6.96875 3.03031 6.96875 5.80908C6.96875 8.05557 10.257 12.1501 11.5168 13.6363C11.772 13.9373 12.2284 13.9373 12.4832 13.6363C13.743 12.1501 17.0312 8.05557 17.0312 5.80908C17.0312 3.03031 14.7788 0.777832 12 0.777832ZM12 7.48617C11.0736 7.48617 10.3229 6.73547 10.3229 5.80908C10.3229 4.88269 11.0736 4.132 12 4.132C12.9264 4.132 13.6771 4.88269 13.6771 5.80908C13.6771 6.73547 12.9264 7.48617 12 7.48617ZM1.3034 9.40084C1.06629 9.49567 0.863021 9.65938 0.719822 9.87083C0.576622 10.0823 0.500057 10.3318 0.5 10.5872L0.5 20.5826C0.5 21.0346 0.956406 21.3437 1.37608 21.176L6.88889 18.6667V9.35971C6.5359 8.72162 6.2472 8.1003 6.04036 7.50613L1.3034 9.40084ZM12 15.1397C11.4382 15.1397 10.9067 14.8929 10.5421 14.4624C9.7571 13.536 8.92215 12.4811 8.16667 11.399V18.6663L15.8333 21.2219V11.3994C15.0778 12.4811 14.2433 13.5364 13.4579 14.4628C13.0933 14.8929 12.5618 15.1397 12 15.1397ZM22.6239 7.21304L17.1111 9.72228V21.2223L22.6966 18.9882C22.9337 18.8934 23.137 18.7297 23.2802 18.5182C23.4235 18.3067 23.5 18.0572 23.5 17.8018V7.80641C23.5 7.35439 23.0436 7.04533 22.6239 7.21304Z" fill="#F5F5F5"/>
</svg>
