<svg width="24" height="26" viewBox="0 0 24 26" fill="none" xmlns="http://www.w3.org/2000/svg">
<path d="M4.34545 6.87319C4.34545 6.40458 4.69368 6.0173 5.14549 5.956L5.27109 5.94756L19.8345 5.94769L16.3696 2.49663C16.0073 2.13599 16.0059 1.54991 16.3666 1.18759C16.6944 0.858207 17.2086 0.827144 17.5716 1.09518L17.6756 1.18456L22.7317 6.21729C22.7614 6.24763 22.7885 6.27851 22.8134 6.31109L22.7317 6.21729C22.7773 6.2627 22.8172 6.31168 22.8513 6.36333C22.8626 6.38135 22.874 6.40008 22.8848 6.41923C22.8955 6.43701 22.9049 6.45509 22.9137 6.4734C22.9217 6.49147 22.9298 6.50981 22.9373 6.52844C22.9474 6.55212 22.956 6.5764 22.9635 6.60094C22.9674 6.61541 22.9715 6.63022 22.9753 6.64518C22.9826 6.67184 22.9881 6.69863 22.9925 6.72557C22.9939 6.73818 22.9957 6.7514 22.9973 6.76472C23.0015 6.79513 23.0035 6.82527 23.0041 6.85544C23.0035 6.8614 23.0036 6.86729 23.0036 6.87319L23.0041 6.89122C23.0035 6.92139 23.0015 6.95153 22.998 6.98153L23.0036 6.87319C23.0036 6.92362 22.9996 6.9731 22.9918 7.02134C22.9881 7.04803 22.9826 7.07482 22.9759 7.10137C22.9717 7.1154 22.9678 7.12947 22.9635 7.1434C22.9561 7.16993 22.9468 7.1963 22.9362 7.22228C22.9297 7.23651 22.9237 7.25022 22.9174 7.26376C22.9083 7.28508 22.8973 7.30646 22.8855 7.32747C22.874 7.34641 22.8625 7.36509 22.8505 7.38332C22.8419 7.39757 22.8321 7.4116 22.8218 7.42541L22.8134 7.4353C22.7885 7.46788 22.7614 7.49875 22.7325 7.52772L22.7317 7.52937L17.6756 12.5621C17.3133 12.9227 16.7272 12.9214 16.3666 12.5591C16.0387 12.2297 16.01 11.7154 16.2797 11.3536L16.3696 11.25L19.837 7.79897L5.27109 7.79883C4.75988 7.79883 4.34545 7.38441 4.34545 6.87319ZM0.996424 19.1267L0.99591 19.1087C0.99649 19.0785 0.998535 19.0484 1.00205 19.0184L0.996424 19.1267C0.996424 19.0763 1.00046 19.0268 1.00822 18.9786C1.01182 18.9522 1.01727 18.9257 1.02389 18.8995C1.02842 18.884 1.03283 18.8683 1.03765 18.8527C1.0445 18.8284 1.05283 18.8049 1.06214 18.7817C1.06961 18.7649 1.07704 18.7479 1.08496 18.7312C1.09355 18.7113 1.10367 18.6917 1.11452 18.6725C1.12468 18.656 1.13458 18.6396 1.14495 18.6236C1.15474 18.6072 1.16619 18.5907 1.17824 18.5745L1.26837 18.4706L6.32441 13.4378C6.68673 13.0772 7.27281 13.0785 7.63346 13.4408C7.96132 13.7702 7.99001 14.2845 7.7203 14.6463L7.63043 14.7499L4.1616 18.2019L18.7289 18.2011C19.2401 18.2011 19.6546 18.6155 19.6546 19.1267C19.6546 19.5953 19.3063 19.9826 18.8545 20.0439L18.7289 20.0524L4.16283 20.0532L7.63043 23.5033C7.95981 23.8311 7.99088 24.3453 7.72284 24.7083L7.63346 24.8123C7.3056 25.1417 6.79143 25.1728 6.42844 24.9047L6.32441 24.8154L1.26837 19.7826L1.21839 19.7281C1.20744 19.7153 1.19683 19.7022 1.18658 19.6888L1.26837 19.7826C1.22275 19.7372 1.18286 19.6882 1.14869 19.6366C1.13746 19.6186 1.126 19.5998 1.1152 19.5807C1.10448 19.5629 1.09508 19.5448 1.08631 19.5265C1.07831 19.5084 1.07024 19.4901 1.06275 19.4715C1.05263 19.4478 1.04406 19.4235 1.03653 19.399C1.03252 19.3841 1.02825 19.3688 1.02436 19.3533C1.01753 19.3285 1.01231 19.3033 1.00814 19.278C1.00624 19.2628 1.00417 19.2479 1.00245 19.2329C0.998526 19.2044 0.996537 19.1751 0.995935 19.1457C0.996486 19.1392 0.996424 19.133 0.996424 19.1267Z" fill="#FCD42C"/>
</svg>
