<svg width="93" height="26" viewBox="0 0 93 26" fill="none" xmlns="http://www.w3.org/2000/svg">
<path d="M1.472 0.4C1.152 0.4 0.96 0.591999 0.96 0.911999V4.112C0.96 4.432 1.152 4.624 1.472 4.624H5.184V25.488C5.184 25.84 5.376 26 5.696 26H9.024C9.376 26 9.536 25.84 9.536 25.488V4.624H13.248C13.6 4.624 13.76 4.432 13.76 4.112V0.911999C13.76 0.591999 13.6 0.4 13.248 0.4H1.472Z" fill="#FCD42C"/>
<path d="M24.1148 26C24.3308 26 24.4208 25.892 24.3668 25.694L21.3788 13.652C21.3428 13.472 21.2348 13.4 21.0728 13.4H18.5708C18.4088 13.4 18.3008 13.472 18.2648 13.652L15.2768 25.694C15.2228 25.892 15.3127 26 15.5108 26H17.2748C17.4368 26 17.5268 25.91 17.5628 25.748L18.1208 23.48H21.5048L22.0808 25.748C22.1168 25.91 22.2068 26 22.3688 26H24.1148ZM20.9468 21.392H18.6788L19.8128 16.496L20.9468 21.392ZM26.1196 26C25.9216 26 25.8316 25.892 25.8316 25.712V13.688C25.8316 13.508 25.9216 13.4 26.1196 13.4H27.9916C28.1716 13.4 28.2796 13.508 28.2796 13.688V25.712C28.2796 25.892 28.1716 26 27.9916 26H26.1196ZM40.2735 13.4C40.0395 13.4 39.9315 13.508 39.8955 13.742L38.9775 21.266H38.8875L37.1235 13.706C37.0695 13.508 36.9435 13.4 36.7275 13.4H35.6295C35.4135 13.4 35.2875 13.508 35.2335 13.706L33.4695 21.266H33.3795L32.4975 13.742C32.4615 13.508 32.3355 13.4 32.1195 13.4H30.4275C30.1755 13.4 30.0495 13.544 30.0855 13.778L31.7415 25.658C31.7775 25.892 31.9035 26 32.1375 26H34.1175C34.3335 26 34.4595 25.892 34.5135 25.676L36.1875 18.296L37.8435 25.676C37.8975 25.892 38.0235 26 38.2395 26H40.1835C40.4175 26 40.5435 25.892 40.5795 25.676L42.3075 13.778C42.3435 13.544 42.2175 13.4 41.9655 13.4H40.2735ZM51.3081 26C51.5241 26 51.6141 25.892 51.5601 25.694L48.5721 13.652C48.5361 13.472 48.4281 13.4 48.2661 13.4H45.7641C45.6021 13.4 45.4941 13.472 45.4581 13.652L42.4701 25.694C42.4161 25.892 42.5061 26 42.7041 26H44.4681C44.6301 26 44.7201 25.91 44.7561 25.748L45.3141 23.48H48.6981L49.2741 25.748C49.3101 25.91 49.4001 26 49.5621 26H51.3081ZM48.1401 21.392H45.8721L47.0061 16.496L48.1401 21.392ZM58.731 13.4C58.533 13.4 58.443 13.508 58.443 13.688V20.51L55.059 13.634C54.987 13.472 54.897 13.4 54.735 13.4H53.313C53.133 13.4 53.025 13.508 53.025 13.688V25.712C53.025 25.892 53.133 26 53.313 26H55.005C55.203 26 55.293 25.892 55.293 25.712V18.89L58.677 25.766C58.749 25.928 58.839 26 59.001 26H60.423C60.603 26 60.711 25.892 60.711 25.712V13.688C60.711 13.508 60.603 13.4 60.423 13.4H58.731ZM74.2352 14.192C74.2352 12.5 73.3172 11.6 71.6252 11.6H67.3052C67.1252 11.6 67.0172 11.69 67.0172 11.888V25.712C67.0172 25.892 67.1252 26 67.3052 26H71.6252C73.3172 26 74.2352 25.1 74.2352 23.408V20.096C74.2352 19.43 73.7492 18.926 73.1012 18.818V18.782C73.7492 18.674 74.2352 18.17 74.2352 17.504V14.192ZM71.8412 16.91C71.8412 17.36 71.5892 17.612 71.1212 17.612H69.4832V13.976H71.1212C71.6072 13.976 71.8412 14.228 71.8412 14.696V16.91ZM71.8412 22.904C71.8412 23.39 71.5892 23.624 71.1212 23.624H69.4832V19.988H71.1212C71.6072 19.988 71.8412 20.24 71.8412 20.708V22.904ZM81.2188 13.4C81.0208 13.4 80.8588 13.562 80.8588 13.76V22.904C80.8588 23.39 80.6068 23.624 80.1388 23.624H79.2028C78.7348 23.624 78.4828 23.39 78.4828 22.904V13.76C78.4828 13.562 78.3208 13.4 78.1228 13.4H76.3948C76.1968 13.4 76.0348 13.562 76.0348 13.76V23.408C76.0348 25.1 76.9348 26 78.6268 26H80.6428C82.3348 26 83.2348 25.1 83.2348 23.408V13.76C83.2348 13.562 83.0728 13.4 82.8748 13.4H81.2188ZM87.451 13.4C85.777 13.4 84.859 14.3 84.859 15.992V19.106C84.859 19.448 85.021 19.664 85.345 19.772L89.665 21.176V22.994C89.665 23.48 89.413 23.714 88.945 23.714H87.973C87.523 23.714 87.253 23.48 87.253 22.994V22.238C87.253 22.04 87.163 21.95 86.965 21.95H85.147C84.967 21.95 84.859 22.04 84.859 22.238V23.408C84.859 25.1 85.777 26 87.451 26H89.467C91.159 26 92.059 25.1 92.059 23.408V20.024C92.059 19.682 91.897 19.466 91.591 19.358L87.235 17.954V16.424C87.235 15.956 87.505 15.704 87.955 15.704H88.945C89.431 15.704 89.665 15.956 89.665 16.424V17.18C89.665 17.36 89.773 17.468 89.953 17.468H91.771C91.969 17.468 92.059 17.36 92.059 17.18V15.992C92.059 14.3 91.159 13.4 89.467 13.4H87.451Z" fill="#F5F5F5"/>
</svg>
