<svg width="64" height="64" xmlns="http://www.w3.org/2000/svg" xmlns:undefined="http://www.serif.com/" clip-rule="evenodd" xml:space="preserve" version="1.1">

 <g>
  <title>Layer 1</title>
  <rect fill="none" height="800" width="1280" y="-128" x="-640" id="Icons"/>
  <g  id="Icons1">
   <g id="Strike"/>
   <g id="H1"/>
   <g id="H2"/>
   <g id="H3"/>
   <g id="list-ul"/>
   <g id="hamburger-1"/>
   <g id="hamburger-2"/>
   <g id="list-ol"/>
   <g id="list-task"/>
   <g id="trash"/>
   <g id="vertical-menu"/>
   <g id="horizontal-menu"/>
   <g id="sidebar-2"/>
   <g id="Pen"/>
   <g  id="Pen1"/>
   <g id="clock"/>
   <g id="external-link"/>
   <g id="hr"/>
   <g id="info"/>
   <g id="warning"/>
   <g id="plus-circle"/>
   <g id="minus-circle"/>
   <g id="vue"/>
   <g id="cog"/>
   <g id="logo"/>
   <g id="eye-slash"/>
   <g id="eye"/>
   <g id="toggle-off"/>
   <g id="shredder"/>
   <path fill="#f5f5f5" id="svg_1" d="m39.94,44.142c-3.387,2.507 7.145,-8.263 4.148,-4.169c0.075,-0.006 -0.064,0.221 -0.53,0.79c0,0 8.004,7.95 11.933,11.996c1.364,1.475 -1.097,4.419 -2.769,2.882c-3.558,-3.452 -11.977,-12.031 -11.99,-12.045l-0.792,0.546z"/>
   <path fill="#ffffff" id="svg_2" fill-rule="nonzero" d="m28.179,48.162c5.15,-0.05 10.248,-2.183 13.914,-5.806c4.354,-4.303 6.596,-10.669 5.814,-16.747c-1.34,-10.415 -9.902,-17.483 -19.856,-17.483c-7.563,0 -14.913,4.731 -18.137,11.591c-2.468,5.252 -2.473,11.593 0,16.854c3.201,6.812 10.431,11.518 18.008,11.591c0.086,0 0.172,0 0.257,0zm-0.236,-3.337c-7.691,-0.074 -14.867,-6.022 -16.294,-13.648c-1.006,-5.376 0.893,-11.194 4.849,-15.012c4.618,-4.459 11.877,-5.952 17.913,-3.425c5.4,2.261 9.442,7.511 10.187,13.295c0.638,4.958 -1.141,10.154 -4.637,13.733c-3.067,3.14 -7.368,5.014 -11.803,5.057c-0.072,0 -0.143,0 -0.215,0z"/>
   <g  id="spinner--loading--dots-"/>
   <g id="react"/>
  </g>
 </g>
</svg>