<svg width="16" height="16" viewBox="0 0 16 16" fill="none" xmlns="http://www.w3.org/2000/svg">
<path fill-rule="evenodd" clip-rule="evenodd" d="M11.4672 0C14.1784 0 16 1.9024 16 4.7328V11.2672C16 14.0976 14.1784 16 11.4664 16H4.532C1.8208 16 0 14.0976 0 11.2672V4.7328C0 1.9024 1.8208 0 4.532 0H11.4672ZM11.4672 1.2H4.532C2.508 1.2 1.2 2.5864 1.2 4.7328V11.2672C1.2 13.4136 2.508 14.8 4.532 14.8H11.4664C13.4912 14.8 14.8 13.4136 14.8 11.2672V4.7328C14.8 2.5864 13.492 1.2 11.4672 1.2ZM7.99928 3.90688C8.33048 3.90688 8.59928 4.17568 8.59928 4.50688V7.65568L11.0201 9.09808C11.3041 9.26848 11.3977 9.63648 11.2281 9.92128C11.1153 10.1093 10.9161 10.2141 10.7121 10.2141C10.6073 10.2141 10.5017 10.1869 10.4049 10.1301L7.69208 8.51168C7.51128 8.40288 7.39928 8.20688 7.39928 7.99648V4.50688C7.39928 4.17568 7.66808 3.90688 7.99928 3.90688Z" fill="#FCD42C"/>
</svg>
